<?xml version="1.0" encoding="UTF-8"?><svg id="__we_care" xmlns="http://www.w3.org/2000/svg" xmlns:xlink="http://www.w3.org/1999/xlink" viewBox="0 0 220 220"><defs><style>.cls-1{fill:url(#Gradient_bez_nazwy_137);}.cls-1,.cls-2,.cls-3,.cls-4{fill-opacity:.5;}.cls-5{fill:url(#Gradient_bez_nazwy_107);}.cls-2{fill:url(#Gradient_bez_nazwy_130);}.cls-3{fill:url(#Gradient_bez_nazwy_130-3);}.cls-6{fill:url(#Gradient_bez_nazwy_175);}.cls-7{fill:url(#Gradient_bez_nazwy_81);}.cls-4{fill:url(#Gradient_bez_nazwy_130-2);}.cls-8{fill:none;}.cls-9{fill:url(#Gradient_bez_nazwy_194);}.cls-10{fill:url(#Gradient_bez_nazwy_212);}.cls-11{fill:url(#Gradient_bez_nazwy_148);}.cls-12{fill:url(#Gradient_bez_nazwy_211);}.cls-13{fill:url(#Gradient_bez_nazwy_192);}</style><linearGradient id="Gradient_bez_nazwy_130" x1="25.18" y1="44.17" x2="190.94" y2="44.17" gradientTransform="matrix(1, 0, 0, 1, 0, 0)" gradientUnits="userSpaceOnUse"><stop offset=".25" stop-color="#dc12fc"/><stop offset=".77" stop-color="#020af6"/></linearGradient><radialGradient id="Gradient_bez_nazwy_81" cx="109.16" cy="114.24" fx="109.16" fy="114.24" r="56.06" gradientTransform="matrix(1, 0, 0, 1, 0, 0)" gradientUnits="userSpaceOnUse"><stop offset=".19" stop-color="#666" stop-opacity=".4"/><stop offset=".89" stop-color="#999" stop-opacity=".1"/></radialGradient><linearGradient id="Gradient_bez_nazwy_107" x1="61.07" y1="64.79" x2="157.25" y2="64.79" gradientTransform="matrix(1, 0, 0, 1, 0, 0)" gradientUnits="userSpaceOnUse"><stop offset=".08" stop-color="#f2f2f2" stop-opacity=".05"/><stop offset=".79" stop-color="gray" stop-opacity=".05"/></linearGradient><linearGradient id="Gradient_bez_nazwy_194" x1="179.85" y1="133.18" x2="200.1" y2="138.31" gradientTransform="matrix(1, 0, 0, 1, 0, 0)" gradientUnits="userSpaceOnUse"><stop offset=".48" stop-color="#020af6" stop-opacity="0"/><stop offset=".55" stop-color="#020af6"/><stop offset=".67" stop-color="#020af6" stop-opacity="0"/></linearGradient><radialGradient id="Gradient_bez_nazwy_175" cx="335.38" cy="-363.74" fx="335.38" fy="-363.74" r="17.12" gradientTransform="translate(-151.5 -242.15) rotate(92.91)" gradientUnits="userSpaceOnUse"><stop offset=".25" stop-color="#020af6"/><stop offset=".77" stop-color="#020af6" stop-opacity="0"/></radialGradient><linearGradient id="Gradient_bez_nazwy_130-2" x1="32.54" y1="177.99" x2="205.93" y2="177.99" xlink:href="#Gradient_bez_nazwy_130"/><linearGradient id="Gradient_bez_nazwy_137" x1="1.85" y1="145.25" x2="209.97" y2="145.25" gradientTransform="matrix(1, 0, 0, 1, 0, 0)" gradientUnits="userSpaceOnUse"><stop offset=".46" stop-color="#dc12fc"/><stop offset=".86" stop-color="#020af6"/></linearGradient><linearGradient id="Gradient_bez_nazwy_192" x1="-240.6" y1="-400.39" x2="-238.54" y2="-411.39" gradientTransform="translate(441.35 -133.61) rotate(-87.09)" gradientUnits="userSpaceOnUse"><stop offset=".1" stop-color="#dc12fc" stop-opacity="0"/><stop offset=".25" stop-color="#dc12fc"/><stop offset=".41" stop-color="#dc12fc" stop-opacity="0"/></linearGradient><radialGradient id="Gradient_bez_nazwy_148" cx="-189.38" cy="-166.1" fx="-189.38" fy="-166.1" r="17.12" gradientTransform="translate(197.86 -69.62) rotate(-87.09)" gradientUnits="userSpaceOnUse"><stop offset=".25" stop-color="#dc12fc"/><stop offset=".77" stop-color="#dc12fc" stop-opacity="0"/></radialGradient><linearGradient id="Gradient_bez_nazwy_130-3" x1="-14.08" y1="77.25" x2="242.61" y2="77.25" xlink:href="#Gradient_bez_nazwy_130"/><linearGradient id="Gradient_bez_nazwy_211" x1="84.96" y1="110.19" x2="132.42" y2="110.19" gradientTransform="matrix(1, 0, 0, 1, 0, 0)" gradientUnits="userSpaceOnUse"><stop offset="0" stop-color="#fff"/><stop offset=".86" stop-color="#e1a5c8"/></linearGradient><linearGradient id="Gradient_bez_nazwy_212" x1="88.99" y1="110.19" x2="146.8" y2="110.19" gradientTransform="matrix(1, 0, 0, 1, 0, 0)" gradientUnits="userSpaceOnUse"><stop offset=".55" stop-color="#dc12fc" stop-opacity=".5"/><stop offset=".75" stop-color="#7643a8"/></linearGradient></defs><g><path class="cls-8" d="M117.53,27.22c-.1,.39-.21,.77-.35,1.13-.01,.03-.02,.07-.03,.1-.36,.88-.87,1.67-1.48,2.38-1.56,1.81-3.83,2.98-6.41,3.03-2.57,.05-4.89-1.03-6.52-2.78-.54-.59-1.01-1.25-1.38-1.96-.08-.15-.12-.32-.19-.48-.2-.46-.37-.94-.5-1.43C60.79,31.14,28.96,62.95,24.99,102.84c3.72,.93,6.51,4.25,6.59,8.27,0,.03,0,.05,0,.08,.01,1.16-.21,2.26-.61,3.28-.01,.03-.02,.07-.03,.1-.36,.88-.87,1.67-1.48,2.38-1.15,1.33-2.69,2.32-4.46,2.77,3.98,39.81,35.71,71.56,75.51,75.56,.67-4.07,4.15-7.21,8.41-7.29,4.38-.09,8.06,3.08,8.75,7.28,39.7-4.06,71.35-35.72,75.37-75.43-1.87-.35-3.52-1.29-4.77-2.64-.54-.59-1.01-1.25-1.38-1.96-.08-.15-.12-.32-.19-.48-.38-.86-.65-1.78-.73-2.77-.01-.18-.06-.35-.06-.54-.08-4.33,3.01-7.97,7.13-8.72-4.01-39.78-35.74-71.5-75.52-75.49Z"/><path class="cls-2" d="M117.78,25.24c0-.05,0-.11,0-.16,0-.03,0-.05,0-.08-.09-4.81-4.07-8.63-8.88-8.53-4.77,.09-8.56,4.01-8.53,8.76,0,.04,0,.08,0,.11,0,.18,.05,.35,.06,.54,.04,.46,.12,.9,.23,1.34,.13,.49,.3,.97,.5,1.43,.07,.16,.11,.33,.19,.48,.37,.72,.83,1.38,1.38,1.96,1.62,1.75,3.94,2.83,6.52,2.78,2.57-.05,4.85-1.23,6.41-3.03,.61-.71,1.12-1.5,1.48-2.38,.01-.03,.02-.07,.03-.1,.14-.37,.26-.75,.35-1.13,10.73,1.08,20.86,4.19,30.03,8.91,16.23,7.61,29.67,20.16,38.39,35.73-13.08-25.45-38.41-43.62-68.17-46.63Z"/><path class="cls-7" d="M157.12,129.49c.75-15.12,0-60.56,0-60.56,0,0-43.34-16.54-48.08-17.52v-.03s-.09,0-.17,0c-.11-.02-.19-.02-.23,0v.05c-4.71,.99-47.43,17.51-47.43,17.51,0,0-.75,45.44,0,60.56,.4,8.04-3.41,15.76,14.92,28.52,12.21,8.5,23.54,11.38,32.94,18.94v.15s.06-.05,.09-.07c.03,.03,.06,.05,.09,.07v-.15c9.4-7.57,20.74-10.44,32.94-18.94,18.33-12.77,14.52-20.49,14.92-28.52Z"/><path class="cls-5" d="M108.62,60.63s.12,0,.24,0c.08,0,.14-.01,.17,0v.03c4.38,.91,40.73,14.7,48.22,17.55-.07-5.61-.13-9.28-.13-9.28,0,0-43.34-16.54-48.08-17.52v-.03s-.09,0-.17,0c-.11-.02-.19-.02-.23,0v.05c-4.71,.99-47.43,17.51-47.43,17.51,0,0-.06,3.67-.13,9.28,7.43-2.87,43.2-16.62,47.55-17.53v-.05Z"/></g><path class="cls-9" d="M200.3,112.81s-12.81-3.59-11.73-.86c7.55,19.03-7.95,46.99-7.95,46.99,16.28-22.39,19.68-46.13,19.68-46.13Z"/><circle class="cls-6" cx="194.72" cy="111.28" r="17.12"/><path class="cls-4" d="M117.67,195.26c-.69-4.2-4.37-7.37-8.75-7.28-4.23,.08-7.69,3.18-8.4,7.2-10.57-1.12-20.55-4.2-29.6-8.86-16.23-7.61-29.67-20.16-38.39-35.73,13.04,25.37,38.26,43.5,67.89,46.6,0,.03,0,.06,.01,.09,0,.04,.01,.08,.02,.12,.08,.99,.35,1.91,.73,2.77,.07,.16,.11,.33,.19,.48,.37,.72,.83,1.38,1.38,1.96,1.62,1.75,3.94,2.83,6.52,2.78,2.57-.05,4.85-1.23,6.41-3.03,.61-.71,1.12-1.5,1.48-2.38,.01-.03,.02-.07,.03-.1,.32-.82,.52-1.7,.59-2.61,.01-.22,.03-.44,.03-.67,0-.03,0-.05,0-.08,0-.43-.06-.84-.13-1.25Z"/><path class="cls-1" d="M195.04,102.59c-.2,0-.39-.02-.59-.02-.48,0-.95,.07-1.4,.15-4.12,.75-7.22,4.4-7.13,8.72,0,.18,.05,.35,.06,.54,.08,.99,.35,1.91,.73,2.77,.07,.16,.11,.33,.19,.48,.37,.72,.83,1.38,1.38,1.96,1.24,1.34,2.9,2.29,4.77,2.64,.25,.05,.51,.08,.77,.1-1.12,10.57-4.2,20.56-8.86,29.61-7.61,16.23-20.16,29.67-35.73,38.39,25.42-13.07,43.58-38.35,46.62-68.06,2.14-.3,4.02-1.38,5.36-2.93,.61-.71,1.12-1.5,1.48-2.38,.01-.03,.02-.07,.03-.1,.4-1.02,.62-2.12,.61-3.28,0-.03,0-.05,0-.08-.09-4.61-3.75-8.3-8.28-8.52Z"/><path class="cls-13" d="M16.78,109.55s12.81,3.59,11.73,.86c-7.55-19.03,9.5-48.23,9.5-48.23-14.37,20.71-21.22,47.37-21.22,47.37Z"/><circle class="cls-11" cx="22.35" cy="111.08" r="17.12"/><path class="cls-3" d="M22.04,102.61c-4.49,.43-7.96,4.25-7.87,8.83,0,.18,.05,.35,.06,.54,.08,.99,.35,1.91,.73,2.77,.07,.16,.11,.33,.19,.48,.37,.72,.83,1.38,1.38,1.96,1.61,1.74,3.92,2.82,6.48,2.78,.01,0,.02,0,.03,0,.67-.01,1.33-.11,1.95-.27,1.76-.45,3.31-1.43,4.46-2.77,.61-.71,1.12-1.5,1.48-2.38,.01-.03,.02-.07,.03-.1,.4-1.02,.62-2.12,.61-3.28,0-.03,0-.05,0-.08-.08-4.02-2.87-7.33-6.59-8.27-.31-.08-.62-.14-.94-.18,1.1-10.62,4.19-20.66,8.88-29.75,7.61-16.23,20.16-29.67,35.73-38.39-25.43,13.07-43.59,38.37-46.62,68.09Z"/><path class="cls-12" d="M89.3,106c0-.21,0-.37,0-.52,0-3.06,0-6.12,0-9.18,0-1.51,.12-3.01,.39-4.49,.32-1.75,.85-3.42,1.69-5,1.33-2.52,3.25-4.47,5.7-5.91,1.66-.98,3.45-1.63,5.32-2.05,1.74-.39,3.51-.59,5.29-.63,1.2-.03,2.41-.02,3.61,.08,2.45,.2,4.84,.68,7.12,1.65,1.82,.78,3.46,1.84,4.88,3.23,1.76,1.72,2.98,3.76,3.75,6.09,.39,1.16,.64,2.34,.81,3.55,.16,1.21,.23,2.42,.23,3.64,0,3.02,0,6.04,0,9.06,0,.15-.02,.31,.03,.47,.19,.06,.37,.03,.55,.03,.88,.02,1.68,.27,2.37,.82,.85,.68,1.33,1.56,1.39,2.66,0,.12,0,.24,0,.35,0,9.5,0,18.99,0,28.49,0,.3,0,.61-.07,.9-.29,1.45-1.46,2.6-2.94,2.87-.27,.05-.54,.06-.82,.08-.16,.01-.31,0-.47,0-13.04,0-26.09,0-39.13,0-.46,0-.92-.02-1.36-.16-1.41-.46-2.31-1.38-2.62-2.85-.03-.13-.04-.26-.04-.39,0-.17,0-.34,0-.51,0-9.46,0-18.91,0-28.37,0-.29,0-.58,.05-.86,.3-1.49,1.22-2.42,2.65-2.87,.36-.11,.74-.16,1.12-.16,.15,0,.31,0,.51-.01Zm33.03-.01c.05-.17,.03-.33,.03-.48,0-2.73,0-5.47,0-8.2,0-.69-.02-1.39-.09-2.08-.13-1.32-.4-2.61-.88-3.85-.72-1.88-1.84-3.48-3.4-4.76-.99-.81-2.12-1.39-3.33-1.81-1.55-.54-3.14-.78-4.77-.85-1.1-.05-2.2-.04-3.29,.06-1.25,.12-2.49,.34-3.69,.72-2.36,.76-4.26,2.14-5.66,4.2-.97,1.43-1.58,3-1.92,4.68-.23,1.17-.33,2.35-.33,3.55,0,2.8,0,5.6,0,8.4,0,.07,0,.13,0,.2,0,.07,.02,.15,.03,.22,.32,.05,26.74,.06,27.29,.01Zm-11.03,18.83c.19-.14,.34-.24,.48-.36,1.49-1.24,2.12-2.84,1.81-4.74-.47-2.92-3.42-4.76-6.26-3.96-2.49,.7-4.04,3.21-3.55,5.74,.25,1.28,.91,2.3,1.94,3.08,.1,.08,.2,.16,.32,.24l-2.31,10.59c.08,.02,.13,.03,.18,.03,3.18,0,6.35,0,9.53,0,.04,0,.07-.02,.14-.04-.37-1.77-.77-3.52-1.14-5.28-.38-1.76-.78-3.52-1.15-5.29Z"/><path class="cls-10" d="M132.41,109.49c-.05-1.1-.53-1.98-1.39-2.66-.69-.55-1.49-.8-2.37-.82-.18,0-.36,.03-.55-.03-.05-.16-.03-.31-.03-.47,0-3.02,0-6.04,0-9.06,0-1.22-.07-2.43-.23-3.64-.16-1.21-.42-2.39-.81-3.55-.77-2.32-1.99-4.37-3.75-6.09-1.42-1.39-3.06-2.45-4.88-3.23-2.27-.97-4.66-1.45-7.12-1.65-1.2-.1-2.4-.11-3.61-.08-.3,0-.59,.03-.89,.04,.28,.01,.55,.02,.83,.04,2.45,.2,4.84,.68,7.12,1.65,1.82,.78,3.46,1.84,4.88,3.23,1.76,1.72,2.98,3.76,3.75,6.09,.39,1.16,.64,2.34,.81,3.55,.16,1.21,.23,2.42,.23,3.64,0,3.02,0,6.04,0,9.06,0,.15-.02,.31,.03,.47,.19,.06,.37,.03,.55,.03,.88,.02,1.68,.27,2.37,.82,.85,.68,1.33,1.56,1.39,2.66,0,.12,0,.24,0,.35,0,9.5,0,18.99,0,28.49,0,.3,0,.61-.07,.9-.29,1.45-1.46,2.6-2.94,2.87-.27,.05-.54,.06-.82,.08-.16,.01-.31,0-.47,0-11.82,0-23.65,0-35.47,0h0c13.04,0,26.09,0,39.13,0,.16,0,.31,0,.47,0,.27-.02,.55-.03,.82-.08,1.47-.27,2.65-1.42,2.94-2.87,.06-.29,.07-.6,.07-.9,0-9.5,0-18.99,0-28.49,0-.12,0-.24,0-.35Z"/></svg>