<?xml version="1.0" encoding="UTF-8"?><svg id="_.2_you" xmlns="http://www.w3.org/2000/svg" xmlns:xlink="http://www.w3.org/1999/xlink" viewBox="0 0 220 220"><defs><style>.cls-1{fill:url(#Gradient_bez_nazwy_137);}.cls-1,.cls-2,.cls-3,.cls-4{fill-opacity:.5;}.cls-5{fill:url(#Gradient_bez_nazwy_107);}.cls-2{fill:url(#Gradient_bez_nazwy_130);}.cls-6{fill:url(#Gradient_bez_nazwy_213-2);}.cls-3{fill:url(#Gradient_bez_nazwy_130-3);}.cls-7{fill:url(#Gradient_bez_nazwy_175);}.cls-8{fill:url(#Gradient_bez_nazwy_213);fill-rule:evenodd;}.cls-9{fill:url(#Gradient_bez_nazwy_81);}.cls-4{fill:url(#Gradient_bez_nazwy_130-2);}.cls-10{fill:none;}.cls-11{fill:url(#Gradient_bez_nazwy_194);}.cls-12{fill:url(#Gradient_bez_nazwy_3);}.cls-13{fill:url(#Gradient_bez_nazwy_215-2);}.cls-14{fill:url(#Gradient_bez_nazwy_148);}.cls-15{fill:url(#Gradient_bez_nazwy_215);}.cls-16{fill:url(#Gradient_bez_nazwy_192);}</style><radialGradient id="Gradient_bez_nazwy_81" cx="113.15" cy="111.4" fx="113.15" fy="111.4" r="75.28" gradientTransform="matrix(1, 0, 0, 1, 0, 0)" gradientUnits="userSpaceOnUse"><stop offset=".19" stop-color="#666" stop-opacity=".4"/><stop offset=".89" stop-color="#999" stop-opacity=".1"/></radialGradient><linearGradient id="Gradient_bez_nazwy_215" x1="85.64" y1="139.65" x2="141.59" y2="139.65" gradientTransform="matrix(1, 0, 0, 1, 0, 0)" gradientUnits="userSpaceOnUse"><stop offset=".29" stop-color="#dc12fc" stop-opacity=".5"/><stop offset=".75" stop-color="#7643a8"/></linearGradient><linearGradient id="Gradient_bez_nazwy_213" x1="96.7" y1="106.75" x2="129.96" y2="106.75" gradientTransform="translate(21.38 .04) rotate(-.02) scale(.81 1)" gradientUnits="userSpaceOnUse"><stop offset="0" stop-color="#fff"/><stop offset=".78" stop-color="#e1a5c8"/></linearGradient><linearGradient id="Gradient_bez_nazwy_213-2" x1="104.91" y1="79.99" x2="121.78" y2="79.98" gradientTransform="matrix(1, 0, 0, 1, 0, 0)" xlink:href="#Gradient_bez_nazwy_213"/><linearGradient id="Gradient_bez_nazwy_215-2" x1="111.7" y1="116.41" x2="129.96" y2="116.41" gradientTransform="translate(21.38 .04) rotate(-.02) scale(.81 1)" xlink:href="#Gradient_bez_nazwy_215"/><linearGradient id="Gradient_bez_nazwy_3" x1="111.6" y1="79.96" x2="128.45" y2="79.96" gradientTransform="translate(-.04 .04) rotate(-.02)" gradientUnits="userSpaceOnUse"><stop offset=".09" stop-color="#dc12fc" stop-opacity=".5"/><stop offset=".87" stop-color="#7643a8"/></linearGradient><linearGradient id="Gradient_bez_nazwy_130" x1="28.73" y1="36.86" x2="194.5" y2="36.86" gradientTransform="translate(165.79 -33.58) rotate(67.96)" gradientUnits="userSpaceOnUse"><stop offset=".25" stop-color="#dc12fc"/><stop offset=".77" stop-color="#020af6"/></linearGradient><linearGradient id="Gradient_bez_nazwy_194" x1="183.4" y1="125.87" x2="203.66" y2="131" gradientTransform="translate(165.79 -33.58) rotate(67.96)" gradientUnits="userSpaceOnUse"><stop offset=".48" stop-color="#020af6" stop-opacity="0"/><stop offset=".55" stop-color="#020af6"/><stop offset=".67" stop-color="#020af6" stop-opacity="0"/></linearGradient><radialGradient id="Gradient_bez_nazwy_175" cx="-258.29" cy="-940.54" fx="-258.29" fy="-940.54" r="17.12" gradientTransform="translate(-408.38 -614.77) rotate(160.87)" gradientUnits="userSpaceOnUse"><stop offset=".25" stop-color="#020af6"/><stop offset=".77" stop-color="#020af6" stop-opacity="0"/></radialGradient><linearGradient id="Gradient_bez_nazwy_130-2" x1="36.09" y1="170.68" x2="209.49" y2="170.68" xlink:href="#Gradient_bez_nazwy_130"/><linearGradient id="Gradient_bez_nazwy_137" x1="5.41" y1="137.94" x2="213.53" y2="137.94" gradientTransform="translate(165.79 -33.58) rotate(67.96)" gradientUnits="userSpaceOnUse"><stop offset=".46" stop-color="#dc12fc"/><stop offset=".86" stop-color="#020af6"/></linearGradient><linearGradient id="Gradient_bez_nazwy_192" x1="-778.3" y1="159.9" x2="-776.24" y2="148.9" gradientTransform="translate(787.8 -379.6) rotate(-19.13)" gradientUnits="userSpaceOnUse"><stop offset=".1" stop-color="#dc12fc" stop-opacity="0"/><stop offset=".25" stop-color="#dc12fc"/><stop offset=".41" stop-color="#dc12fc" stop-opacity="0"/></linearGradient><radialGradient id="Gradient_bez_nazwy_148" cx="-727.08" cy="394.19" fx="-727.08" fy="394.19" r="17.12" gradientTransform="translate(637.12 -581.29) rotate(-19.13)" gradientUnits="userSpaceOnUse"><stop offset=".25" stop-color="#dc12fc"/><stop offset=".77" stop-color="#dc12fc" stop-opacity="0"/></radialGradient><linearGradient id="Gradient_bez_nazwy_130-3" x1="-10.53" y1="69.94" x2="246.17" y2="69.94" xlink:href="#Gradient_bez_nazwy_130"/><linearGradient id="Gradient_bez_nazwy_107" x1="54.06" y1="75.76" x2="172.24" y2="75.76" gradientTransform="matrix(1, 0, 0, 1, 0, 0)" gradientUnits="userSpaceOnUse"><stop offset=".08" stop-color="#f2f2f2" stop-opacity=".05"/><stop offset=".79" stop-color="gray" stop-opacity=".05"/></linearGradient></defs><polygon class="cls-9" points="137.63 52.31 88.68 52.31 54.06 86.93 54.06 135.88 88.68 170.49 137.63 170.49 172.24 135.88 172.24 86.93 137.63 52.31"/><ellipse class="cls-15" cx="113.62" cy="139.65" rx="27.97" ry="7.68"/><path class="cls-8" d="M105.98,90.84h14.69c2.08,0,3.58,1.41,3.78,3.12l2.35,19.97c.2,1.71-1.71,3.13-3.78,3.13h-.92l-3.49,21.81c-.27,1.7-1.7,3.12-3.78,3.12h-2.98c-2.08,0-3.51-1.42-3.78-3.12l-3.51-21.8h-.92c-2.08,0-3.98-1.41-3.78-3.13l2.34-19.97c.2-1.71,1.7-3.13,3.78-3.13h0Zm7.34-19.32c3.78,0,6.85,3.78,6.85,8.44s-3.06,8.44-6.84,8.44-6.85-3.77-6.85-8.44,3.06-8.45,6.84-8.45h0Z"/><g><circle class="cls-6" cx="113.35" cy="79.99" r="8.43"/><path class="cls-13" d="M126.8,113.92l-2.35-19.97c-.2-1.71-1.7-3.13-3.78-3.13h-2.81c2.08,0,3.58,1.42,3.78,3.13l2.35,19.97c.2,1.71-1.71,3.13-3.78,3.13h-.92l-3.49,21.81c-.27,1.7-1.7,3.12-3.78,3.12h2.81c2.08,0,3.51-1.43,3.78-3.13l3.49-21.81h.92c2.08,0,3.98-1.42,3.78-3.13Z"/><path class="cls-12" d="M118.3,79.96c0,4.07-2.88,7.46-6.71,8.26,.56,.12,1.14,.18,1.73,.18,4.66,0,8.44-3.78,8.44-8.44s-3.78-8.44-8.45-8.44c-.59,0-1.17,.06-1.73,.18,3.83,.8,6.71,4.19,6.71,8.26Z"/></g><g><path class="cls-10" d="M192.77,86.13c-.39,.06-.79,.1-1.18,.1-.04,0-.07,.01-.11,.01-.95,0-1.88-.18-2.76-.48-2.26-.77-4.2-2.43-5.22-4.8-1.01-2.37-.88-4.92,.14-7.08,.34-.72,.78-1.4,1.3-2.01,.11-.13,.25-.23,.38-.36,.35-.36,.73-.7,1.14-1-18.61-35.51-60.04-53.08-98.5-41.78,.53,3.8-1.5,7.63-5.19,9.21-.02,.01-.05,.01-.08,.02-1.07,.45-2.18,.65-3.27,.66-.04,0-.07,.01-.11,.01-.95,0-1.88-.18-2.76-.48-1.67-.56-3.16-1.62-4.24-3.09-35.4,18.62-52.93,59.95-41.71,98.35,4.02-.91,8.24,1.14,9.92,5.06,1.72,4.03,.17,8.62-3.46,10.84,18.66,35.28,59.89,52.73,98.2,41.56-.38-1.86-.13-3.75,.65-5.41,.34-.72,.78-1.4,1.3-2.01,.11-.13,.25-.23,.38-.36,.66-.68,1.41-1.27,2.29-1.72,.16-.08,.3-.19,.47-.26,3.98-1.7,8.52-.2,10.76,3.34,35.37-18.64,52.86-59.95,41.64-98.33Z"/><path class="cls-2" d="M194.71,85.62s.1-.03,.15-.05c.02-.01,.05-.01,.08-.02,4.42-1.89,6.47-7.01,4.58-11.43-1.88-4.39-6.93-6.43-11.32-4.62-.04,.01-.07,.02-.11,.04-.17,.07-.31,.18-.47,.26-.41,.21-.79,.45-1.15,.72-.41,.3-.79,.64-1.14,1-.12,.12-.26,.23-.38,.36-.53,.61-.96,1.29-1.3,2.01-1.02,2.16-1.15,4.72-.14,7.08,1.01,2.37,2.96,4.04,5.22,4.8,.88,.3,1.81,.47,2.76,.48,.04,0,.07,0,.11-.01,.39,0,.79-.04,1.18-.1,3.03,10.35,3.95,20.91,3.01,31.18-.96,17.9-7.56,35.07-18.72,48.99,18.69-21.68,26.02-51.98,17.64-80.69Z"/></g><path class="cls-11" d="M144.49,194.96s-1.48-13.22-3.61-11.19c-14.81,14.14-46.54,10.26-46.54,10.26,26.87,6.69,50.14,.93,50.14,.93Z"/><circle class="cls-7" cx="143.82" cy="189.22" r="17.12"/><path class="cls-4" d="M37.07,149.31c3.63-2.22,5.19-6.81,3.46-10.84-1.67-3.89-5.83-5.94-9.82-5.08-2.93-10.21-3.82-20.63-2.9-30.76,.96-17.9,7.55-35.07,18.72-48.99-18.63,21.61-25.97,51.78-17.72,80.41-.03,.02-.05,.03-.08,.04-.03,.02-.07,.04-.1,.06-.88,.45-1.64,1.04-2.29,1.72-.12,.12-.26,.23-.37,.36-.53,.61-.96,1.29-1.3,2.01-1.01,2.16-1.15,4.72-.14,7.08,1.01,2.37,2.96,4.04,5.22,4.8,.88,.3,1.81,.47,2.76,.48,.04,0,.07,0,.11-.01,.88,0,1.77-.15,2.64-.44,.21-.07,.42-.14,.63-.23,.02-.01,.05-.01,.08-.02,.39-.17,.76-.37,1.12-.59Z"/><path class="cls-1" d="M152,186.26c-.07-.19-.13-.37-.21-.56-.19-.44-.42-.85-.67-1.24-2.25-3.54-6.78-5.04-10.76-3.34-.17,.07-.31,.18-.47,.26-.88,.45-1.64,1.04-2.29,1.72-.12,.12-.26,.23-.37,.36-.53,.61-.96,1.29-1.3,2.01-.78,1.66-1.03,3.55-.65,5.41,.05,.25,.12,.5,.19,.75-10.22,2.93-20.64,3.83-30.77,2.9-17.9-.96-35.07-7.56-48.99-18.72,21.65,18.66,51.9,26,80.58,17.67,1.08,1.87,2.78,3.21,4.73,3.87,.88,.3,1.81,.47,2.76,.48,.04,0,.07,0,.11-.01,1.09,0,2.2-.22,3.27-.66,.02-.01,.05-.01,.08-.02,4.24-1.81,6.29-6.59,4.79-10.87Z"/><path class="cls-16" d="M78.65,23.63s1.48,13.22,3.61,11.19c14.81-14.14,48.27-9.29,48.27-9.29-24.59-5.55-51.87-1.9-51.87-1.9Z"/><circle class="cls-14" cx="79.33" cy="29.37" r="17.12"/><path class="cls-3" d="M87.06,25.9c-2.08-4-6.92-5.78-11.14-3.98-.17,.07-.31,.18-.47,.26-.88,.45-1.64,1.04-2.29,1.72-.12,.12-.26,.23-.37,.36-.53,.61-.96,1.29-1.3,2.01-1.01,2.15-1.15,4.69-.15,7.05,0,.01,0,.02,.01,.03,.27,.62,.6,1.19,.98,1.71,1.08,1.47,2.57,2.53,4.24,3.09,.88,.3,1.81,.47,2.76,.48,.04,0,.07,0,.11-.01,1.09,0,2.2-.22,3.27-.66,.02-.01,.05-.01,.08-.02,3.69-1.58,5.72-5.41,5.19-9.21-.04-.31-.11-.63-.19-.94,10.26-2.96,20.72-3.86,30.9-2.93,17.9,.96,35.07,7.56,48.99,18.72-21.66-18.67-51.92-26.01-80.61-17.66Z"/><polygon class="cls-5" points="134.63 61.31 172.24 97.58 172.24 86.93 137.63 52.31 88.68 52.31 54.06 86.93 54.06 99.2 91.68 61.31 134.63 61.31"/></svg>