<?xml version="1.0" encoding="UTF-8"?><svg id="__introduction" xmlns="http://www.w3.org/2000/svg" xmlns:xlink="http://www.w3.org/1999/xlink" viewBox="0 0 220 220"><defs><style>.cls-1{fill:url(#Gradient_bez_nazwy_107);fill-opacity:.77;}.cls-2{fill:url(#Gradient_bez_nazwy_149);}.cls-3{fill:url(#Gradient_bez_nazwy_6);}.cls-4{fill:url(#Gradient_bez_nazwy_130);}.cls-4,.cls-5,.cls-6,.cls-7{fill-opacity:.5;}.cls-8{fill:url(#Gradient_bez_nazwy_206);}.cls-9{fill:url(#Gradient_bez_nazwy_202);}.cls-10{fill:url(#Gradient_bez_nazwy_207);}.cls-5{fill:url(#Gradient_bez_nazwy_130-3);}.cls-11{fill:url(#Gradient_bez_nazwy_81);}.cls-6{fill:url(#Gradient_bez_nazwy_130-2);}.cls-12{fill:none;}.cls-7{fill:url(#Gradient_bez_nazwy_208);}.cls-13{fill:url(#Gradient_bez_nazwy_204);}.cls-14{fill:url(#Gradient_bez_nazwy_169);}.cls-15{fill:url(#Gradient_bez_nazwy_203);}.cls-16{fill:url(#Gradient_bez_nazwy_205);}.cls-17{fill:url(#Gradient_bez_nazwy_148);}</style><radialGradient id="Gradient_bez_nazwy_81" cx="109.12" cy="110.07" fx="109.12" fy="110.07" r="74.59" gradientTransform="matrix(1, 0, 0, 1, 0, 0)" gradientUnits="userSpaceOnUse"><stop offset=".19" stop-color="#666" stop-opacity=".4"/><stop offset=".89" stop-color="#999" stop-opacity=".1"/></radialGradient><linearGradient id="Gradient_bez_nazwy_6" x1="11.32" y1="-164.9" x2="11.32" y2="-176.66" gradientTransform="translate(199.91 99.35) rotate(-90)" gradientUnits="userSpaceOnUse"><stop offset=".26" stop-color="#dc12fc" stop-opacity="0"/><stop offset=".45" stop-color="#dc12fc"/><stop offset=".63" stop-color="#dc12fc" stop-opacity="0"/></linearGradient><radialGradient id="Gradient_bez_nazwy_148" cx="64.72" cy="69.76" fx="64.72" fy="69.76" r="17.12" gradientTransform="translate(-40.01 175.63) rotate(-90)" gradientUnits="userSpaceOnUse"><stop offset=".25" stop-color="#dc12fc"/><stop offset=".77" stop-color="#dc12fc" stop-opacity="0"/></radialGradient><linearGradient id="Gradient_bez_nazwy_169" x1="97.74" y1="-562.27" x2="97.74" y2="-574.03" gradientTransform="translate(-379.39 36) rotate(90)" gradientUnits="userSpaceOnUse"><stop offset=".32" stop-color="#020af6" stop-opacity="0"/><stop offset=".46" stop-color="#020af6"/><stop offset=".63" stop-color="#020af6" stop-opacity="0"/></linearGradient><radialGradient id="Gradient_bez_nazwy_149" cx="119.46" cy="150.74" fx="119.46" fy="150.74" r="17.12" gradientTransform="translate(37.83 230.78) rotate(-90)" gradientUnits="userSpaceOnUse"><stop offset=".19" stop-color="#020af6"/><stop offset=".77" stop-color="#020af6" stop-opacity="0"/></radialGradient><linearGradient id="Gradient_bez_nazwy_130" x1="34.35" y1="36.86" x2="195.15" y2="36.86" gradientTransform="matrix(1, 0, 0, 1, 0, 0)" gradientUnits="userSpaceOnUse"><stop offset=".25" stop-color="#dc12fc"/><stop offset=".77" stop-color="#020af6"/></linearGradient><linearGradient id="Gradient_bez_nazwy_130-2" x1="21.78" y1="72.71" x2="199.8" y2="72.71" xlink:href="#Gradient_bez_nazwy_130"/><linearGradient id="Gradient_bez_nazwy_208" x1="17.37" y1="148.32" x2="212.06" y2="148.32" gradientTransform="matrix(1, 0, 0, 1, 0, 0)" gradientUnits="userSpaceOnUse"><stop offset=".36" stop-color="#dc12fc"/><stop offset=".91" stop-color="#020af6"/></linearGradient><linearGradient id="Gradient_bez_nazwy_130-3" x1="30.86" y1="183.35" x2="198.53" y2="183.35" xlink:href="#Gradient_bez_nazwy_130"/><linearGradient id="Gradient_bez_nazwy_202" x1="112.33" y1="122.28" x2="164.7" y2="122.28" gradientTransform="matrix(1, 0, 0, 1, 0, 0)" gradientUnits="userSpaceOnUse"><stop offset="0" stop-color="#fff"/><stop offset=".48" stop-color="#e1a5c8"/></linearGradient><linearGradient id="Gradient_bez_nazwy_203" x1="67.14" y1="122.28" x2="127.94" y2="122.28" gradientTransform="matrix(1, 0, 0, 1, 0, 0)" gradientUnits="userSpaceOnUse"><stop offset="0" stop-color="#fff"/><stop offset=".6" stop-color="#e1a5c8"/></linearGradient><linearGradient id="Gradient_bez_nazwy_204" x1="75.04" y1="87.89" x2="167.14" y2="87.89" gradientTransform="matrix(1, 0, 0, 1, 0, 0)" gradientUnits="userSpaceOnUse"><stop offset="0" stop-color="#fff"/><stop offset=".61" stop-color="#e1a5c8"/></linearGradient><linearGradient id="Gradient_bez_nazwy_206" x1="101.69" y1="137.44" x2="162.51" y2="137.44" gradientTransform="matrix(1, 0, 0, 1, 0, 0)" gradientUnits="userSpaceOnUse"><stop offset="0" stop-color="#dc12fc" stop-opacity=".5"/><stop offset=".73" stop-color="#7643a8"/></linearGradient><linearGradient id="Gradient_bez_nazwy_207" x1="514.05" y1="137.44" x2="574.87" y2="137.44" gradientTransform="translate(630.75) rotate(-180) scale(1 -1)" gradientUnits="userSpaceOnUse"><stop offset=".11" stop-color="#7643a8"/><stop offset=".76" stop-color="#dc12fc" stop-opacity=".5"/></linearGradient><linearGradient id="Gradient_bez_nazwy_205" x1="75.04" y1="79.28" x2="167.14" y2="79.28" gradientTransform="matrix(1, 0, 0, 1, 0, 0)" gradientUnits="userSpaceOnUse"><stop offset="0" stop-color="#dc12fc" stop-opacity=".5"/><stop offset=".65" stop-color="#7643a8"/></linearGradient><linearGradient id="Gradient_bez_nazwy_107" x1="54.95" y1="67.66" x2="171.37" y2="67.66" gradientTransform="matrix(1, 0, 0, 1, 0, 0)" gradientUnits="userSpaceOnUse"><stop offset=".08" stop-color="#f2f2f2" stop-opacity=".05"/><stop offset=".79" stop-color="gray" stop-opacity=".05"/></linearGradient></defs><g id="__introduction-2"><polygon class="cls-11" points="163.33 141.36 163.33 78.77 109.12 47.47 54.91 78.77 54.91 141.36 109.12 172.66 163.33 141.36"/><polygon class="cls-3" points="22.87 110.06 34.63 110.32 29.67 65.75 22.87 110.06"/><circle class="cls-17" cx="29.75" cy="110.91" r="17.12"/><polygon class="cls-14" points="195.02 113.72 183.27 113.46 188.73 154.03 195.02 113.72"/><circle class="cls-2" cx="188.57" cy="111.32" r="17.12"/><g><path class="cls-12" d="M103.24,23.47c1.46,1.64,3.58,2.68,5.96,2.68,2.37,0,4.49-1.04,5.96-2.68l72.09,41.62v37.83c-3.79,.64-6.69,3.92-6.69,7.89,0,.17,.04,.33,.05,.49,.07,1.08,.34,2.09,.79,3.01,1.12,2.28,3.27,3.96,5.85,4.4v36.49l-71.93,41.53c-1.47-1.75-3.65-2.89-6.12-2.89s-4.65,1.14-6.12,2.89L31.15,155.22v-36.49c2.72-.46,4.97-2.27,6.03-4.73,.41-.95,.64-2,.65-3.11,0-.02,0-.05,0-.07,0-3.98-2.9-7.25-6.69-7.89v-37.83L103.24,23.47Z"/><path class="cls-4" d="M116.59,21.21c.39-.93,.61-1.94,.62-3.01,0-.02,0-.05,0-.07,0-4.43-3.59-8.03-8.03-8.03s-8.03,3.59-8.03,8.03c0,.17,.04,.33,.05,.49,.06,.91,.29,1.76,.62,2.57,.06,.15,.1,.3,.17,.45,.33,.67,.74,1.29,1.23,1.84,1.46,1.64,3.58,2.68,5.96,2.68s4.49-1.04,5.96-2.68l73.43,40.14L116.59,21.21Z"/><path class="cls-6" d="M31.15,102.93c-.07-.01-.15-.02-.22-.03v-35.91L93.81,26.57,28.25,65.44v37.54c-3.68,.73-6.47,3.95-6.47,7.85,0,.17,.04,.33,.05,.49,.07,1.08,.34,2.09,.79,3.01,1.12,2.28,3.27,3.96,5.85,4.4,.44,.07,.88,.12,1.34,.12s.9-.05,1.34-.12c2.72-.46,4.97-2.27,6.03-4.73,.41-.95,.64-2,.65-3.11,0-.02,0-.05,0-.07,0-3.98-2.9-7.25-6.69-7.89Z"/><path class="cls-7" d="M189.92,102.93c-.44-.07-.88-.13-1.34-.13s-.9,.06-1.34,.13c-3.79,.64-6.69,3.92-6.69,7.89,0,.17,.04,.33,.05,.49,.07,1.08,.34,2.09,.79,3.01,1.12,2.28,3.27,3.96,5.85,4.4v34.71l-62.89,40.42,65.56-38.87v-36.25c2.72-.46,4.97-2.27,6.03-4.73,.41-.95,.64-2,.65-3.11,0-.02,0-.05,0-.07,0-3.98-2.9-7.25-6.69-7.89Z"/><path class="cls-5" d="M116.68,199.05c-.32-.85-.79-1.62-1.36-2.3-1.47-1.75-3.65-2.89-6.12-2.89-2.32,0-4.37,1.01-5.83,2.58L30.86,156.8l71.02,41.84c-.06,.14-.12,.27-.18,.41-.33,.88-.54,1.83-.54,2.83,0,.17,.04,.33,.05,.49,.07,1.08,.34,2.09,.79,3.01,1.31,2.67,4.02,4.52,7.19,4.52s6.14-2,7.37-4.85c.41-.95,.64-2,.65-3.11,0-.02,0-.05,0-.07,0-1-.21-1.95-.54-2.83Z"/></g><polygon class="cls-9" points="112.33 151.04 145.59 130.79 145.59 93.52 112.33 113.77 112.33 151.04"/><polygon class="cls-15" points="106.06 151.04 72.8 130.79 72.8 93.52 106.06 113.77 106.06 151.04"/><polygon class="cls-13" points="75.04 86.37 109.11 107.1 143.38 86.51 109.31 68.69 75.04 86.37"/><polygon class="cls-8" points="112.33 151.04 145.59 130.79 145.59 123.85 112.33 144.1 112.33 151.04"/><polygon class="cls-10" points="106.06 151.04 72.8 130.79 72.8 123.85 106.06 144.1 106.06 151.04"/><path class="cls-16" d="M75.04,86.37l5.76,3.5,28.31-14.89c28.86,14.72,28.78,14.84,28.78,14.84,0,0-1.05,.56,5.49-3.31l-34.07-17.82-34.27,17.68Z"/><polygon class="cls-1" points="163.36 87.84 163.36 78.77 109.15 47.47 54.95 78.77 54.95 87.84 109.15 56.7 163.36 87.84"/></g></svg>