<?xml version="1.0" standalone="no"?>
<!DOCTYPE svg PUBLIC "-//W3C//DTD SVG 20010904//EN"
 "http://www.w3.org/TR/2001/REC-SVG-20010904/DTD/svg10.dtd">
<svg version="1.0" xmlns="http://www.w3.org/2000/svg"
 width="260.000000pt" height="260.000000pt" viewBox="0 0 260.000000 260.000000"
 preserveAspectRatio="xMidYMid meet">

<g transform="translate(0.000000,260.000000) scale(0.100000,-0.100000)"
fill="#ffffff" stroke="none">
<path d="M866 2224 c-157 -28 -333 -101 -428 -175 -92 -74 -229 -439 -293
-784 -26 -142 -50 -394 -41 -430 17 -66 142 -178 271 -243 117 -58 351 -119
404 -105 9 2 47 47 85 99 46 63 74 93 83 89 8 -3 69 -12 136 -21 167 -22 433
-12 548 22 12 3 36 -22 85 -90 37 -52 75 -96 84 -99 52 -14 257 38 388 99 134
61 258 169 286 247 9 28 -11 268 -34 401 -44 250 -122 504 -210 681 -53 105
-58 112 -124 157 -114 78 -302 145 -462 163 -72 8 -88 -3 -106 -71 l-12 -45
-101 8 c-124 10 -146 10 -271 0 l-102 -8 -6 35 c-9 49 -42 86 -74 85 -15 0
-63 -7 -106 -15z m82 -115 c2 -10 -22 -21 -80 -37 -87 -25 -228 -86 -278 -122
-34 -24 -39 -54 -13 -82 22 -25 31 -23 115 21 156 85 396 141 598 141 202 0
442 -56 598 -141 83 -44 88 -45 114 -22 31 28 23 60 -24 90 -60 38 -203 99
-282 120 -49 13 -66 21 -64 33 10 45 315 -47 424 -128 121 -89 287 -630 310
-1013 l7 -107 -34 -42 c-72 -89 -248 -179 -422 -216 -37 -8 -70 -14 -72 -14
-9 0 -86 112 -81 117 3 3 40 20 83 38 138 57 243 129 243 166 0 24 -27 49 -52
49 -12 0 -35 -10 -52 -23 -95 -71 -247 -132 -419 -168 -146 -31 -408 -31 -557
0 -172 36 -287 80 -392 151 -32 22 -69 40 -83 40 -24 0 -45 -24 -45 -54 0 -34
111 -107 241 -161 44 -18 82 -35 85 -38 3 -3 -13 -31 -37 -62 -47 -62 -35 -60
-164 -29 -153 37 -311 124 -376 205 l-32 41 6 106 c22 377 189 924 310 1013
76 57 220 113 352 137 59 11 69 10 73 -9z"/>
<path d="M898 1510 c-109 -33 -192 -168 -174 -282 30 -186 194 -280 341 -193
87 51 138 172 116 276 -14 66 -25 85 -75 137 -57 59 -138 83 -208 62z m120
-120 c61 -37 83 -151 42 -217 -74 -122 -230 -65 -230 85 0 122 95 189 188 132z"/>
<path d="M1563 1506 c-158 -51 -219 -255 -120 -403 39 -58 119 -103 182 -103
102 0 200 89 226 205 40 181 -125 354 -288 301z m117 -109 c43 -22 70 -73 70
-136 0 -153 -155 -212 -230 -88 -24 39 -27 125 -5 167 33 63 104 88 165 57z"/>
</g>
</svg>
