<svg width="30" height="30" viewBox="0 0 30 30" fill="none" xmlns="http://www.w3.org/2000/svg"> <rect y="15" width="15" height="15" rx="2" fill="#DC12FC"/> <rect x="15" y="15" width="15" height="15" rx="2" fill="#7433CC"/> <rect x="15" y="15" width="15" height="15" rx="2" fill="#7433CC"/> <rect x="15" y="15" width="15" height="15" rx="2" fill="#2E36D2"/> <rect x="8" width="15" height="15" rx="2" fill="#7433CC"/> <rect x="8" width="15" height="15" rx="2" fill="#7433CC"/> <rect x="8" width="15" height="15" rx="2" fill="#8930E0"/> <rect x="18" y="1" width="2" height="2" fill="white"/> <rect x="16" y="1" width="2" height="2" fill="white"/> <rect x="18" y="3" width="2" height="2" fill="white"/> <rect x="25" y="16" width="2" height="2" fill="white"/> <rect x="23" y="16" width="2" height="2" fill="white"/> <rect x="25" y="18" width="2" height="2" fill="white"/> <rect x="10" y="16" width="2" height="2" fill="white"/> <rect x="8" y="16" width="2" height="2" fill="white"/> <rect x="10" y="18" width="2" height="2" fill="white"/> </svg>